<svg width="34" height="34" viewBox="0 0 34 34" fill="none" xmlns="http://www.w3.org/2000/svg">
<path d="M3.1875 17C3.1875 9.37157 9.37157 3.1875 17 3.1875C24.6284 3.1875 30.8125 9.37157 30.8125 17C30.8125 24.6284 24.6284 30.8125 17 30.8125C9.37157 30.8125 3.1875 24.6284 3.1875 17Z" fill="#1A1A1A"/>
<path d="M5.84375 17C5.84375 10.8386 10.8386 5.84375 17 5.84375C23.1614 5.84375 28.1562 10.8386 28.1562 17C28.1562 23.1614 23.1614 28.1562 17 28.1562C10.8386 28.1562 5.84375 23.1614 5.84375 17Z" fill="#86DDCB"/>
<path d="M8.5 17C8.5 12.3056 12.3056 8.5 17 8.5C21.6944 8.5 25.5 12.3056 25.5 17C25.5 21.6944 21.6944 25.5 17 25.5C12.3056 25.5 8.5 21.6944 8.5 17Z" fill="#1A1A1A"/>
<path d="M11.6875 17C11.6875 14.066 14.066 11.6875 17 11.6875C19.934 11.6875 22.3125 14.066 22.3125 17C22.3125 19.934 19.934 22.3125 17 22.3125C14.066 22.3125 11.6875 19.934 11.6875 17Z" fill="#86DDCB"/>
<path d="M14.3438 17C14.3438 15.533 15.533 14.3438 17 14.3438C18.467 14.3438 19.6562 15.533 19.6562 17C19.6562 18.467 18.467 19.6562 17 19.6562C15.533 19.6562 14.3438 18.467 14.3438 17Z" fill="#1A1A1A"/>
<path fill-rule="evenodd" clip-rule="evenodd" d="M17 20.7188C14.9462 20.7188 13.2812 19.0538 13.2812 17C13.2812 14.9462 14.9462 13.2812 17 13.2812C19.0538 13.2812 20.7188 14.9462 20.7188 17C20.7188 19.0538 19.0538 20.7188 17 20.7188ZM17 14.3438C15.533 14.3438 14.3438 15.533 14.3438 17C14.3438 18.467 15.533 19.6562 17 19.6562C18.467 19.6562 19.6562 18.467 19.6562 17C19.6562 15.533 18.467 14.3438 17 14.3438Z" fill="#1A1A1A"/>
<path fill-rule="evenodd" clip-rule="evenodd" d="M27.0938 2.125C27.974 2.125 28.6875 2.83855 28.6875 3.71875V5.3125H30.2812C31.1615 5.3125 31.875 6.02605 31.875 6.90625C31.875 7.78645 31.1615 8.5 30.2812 8.5H27.0938C26.2135 8.5 25.5 7.78645 25.5 6.90625V3.71875C25.5 2.83855 26.2135 2.125 27.0938 2.125Z" fill="#1A1A1A"/>
<path fill-rule="evenodd" clip-rule="evenodd" d="M24.9688 4.25C25.849 4.25 26.5625 4.96355 26.5625 5.84375V7.4375H28.1562C29.0365 7.4375 29.75 8.15105 29.75 9.03125C29.75 9.91145 29.0365 10.625 28.1562 10.625H24.9688C24.0885 10.625 23.375 9.91145 23.375 9.03125V5.84375C23.375 4.96355 24.0885 4.25 24.9688 4.25Z" fill="#1A1A1A"/>
<path fill-rule="evenodd" clip-rule="evenodd" d="M28.3763 5.6237C28.7912 6.03863 28.7912 6.71137 28.3763 7.1263L17.7513 17.7513C17.3364 18.1662 16.6636 18.1662 16.2487 17.7513C15.8338 17.3364 15.8338 16.6636 16.2487 16.2487L26.8737 5.6237C27.2886 5.20877 27.9614 5.20877 28.3763 5.6237Z" fill="#1A1A1A"/>
<path fill-rule="evenodd" clip-rule="evenodd" d="M27.0938 3.1875C27.3872 3.1875 27.625 3.42535 27.625 3.71875V6.375H30.2812C30.5747 6.375 30.8125 6.61285 30.8125 6.90625C30.8125 7.19965 30.5747 7.4375 30.2812 7.4375H27.0938C26.8003 7.4375 26.5625 7.19965 26.5625 6.90625V3.71875C26.5625 3.42535 26.8003 3.1875 27.0938 3.1875Z" fill="#86DDCB"/>
<path fill-rule="evenodd" clip-rule="evenodd" d="M24.9688 5.3125C25.2622 5.3125 25.5 5.55035 25.5 5.84375V8.5H28.1562C28.4497 8.5 28.6875 8.73785 28.6875 9.03125C28.6875 9.32465 28.4497 9.5625 28.1562 9.5625H24.9688C24.6753 9.5625 24.4375 9.32465 24.4375 9.03125V5.84375C24.4375 5.55035 24.6753 5.3125 24.9688 5.3125Z" fill="#86DDCB"/>
</svg>
